<svg xmlns="http://www.w3.org/2000/svg" viewBox="0 0 263.4 263.4">
  <title>date</title>
  <g id="Layer_2" data-name="Layer 2">
    <g id="Layer_1-2" data-name="Layer 1">
      <g>
        <path d="M3.5,259.9V28.4H53.4V3.5H85.3V28.4h92.8V3.5h32V28.4h49.8V259.9ZM228,228V60.4H210.1V85.3h-32V60.4H85.3V85.3H53.4V60.4h-18V228Z"/>
        <path d="M206.6,7V31.9h49.8V256.4H7V31.9H56.9V7H81.8V31.9h99.8V7h25m-25,74.8V56.9H81.8V81.8H56.9V56.9h-25V231.5H231.5V56.9H206.6V81.8h-25M213.6,0h-39V24.9H88.8V0H49.9V24.9H0V263.4H263.4V24.9H213.6V0Zm0,63.9h10.9V224.5H38.9V63.9h11V88.8H88.8V63.9h85.8V88.8h39V63.9Z"/>
      </g>
    </g>
  </g>
</svg>
