<svg xmlns="http://www.w3.org/2000/svg" viewBox="0 0 218.3 210.8">
  <title>ic</title>
  <g id="Layer_2" data-name="Layer 2">
    <g id="Layer_1-2" data-name="Layer 1">
      <g>
        <path d="M156.7,65.5c0-8.6,11.7-65.5-46.8-65.5S63.1,56.9,63.1,65.5c-9.3,8.6-3.1,30.4,5.5,30.4,3.1,21,19.5,36.6,19.5,36.6,9.3,7.8,14,7.8,21.8,7.8s11.7-.8,21.8-7.8c0,0,15.6-15.6,19.5-36.6C160.6,95.9,166,73.3,156.7,65.5Z"/>
        <polygon points="93.6 148.8 105.3 175.9 93.6 210.8 124.6 210.8 113 175.9 124.6 148.8 93.6 148.8"/>
        <path d="M140.3,148.4l-7.8,23.4,7.8,39h78C218.3,182.7,163.7,155.5,140.3,148.4Z"/>
        <path d="M0,210.8H78l7.7-39L78,148.4C54.6,155.5,0,182.7,0,210.8Z"/>
      </g>
    </g>
  </g>
</svg>
