<svg xmlns="http://www.w3.org/2000/svg" viewBox="0 0 138.7 249.4">
  <title>ma</title>
  <g id="Layer_2" data-name="Layer 2">
    <g id="Layer_1-2" data-name="Layer 1">
      <path d="M124,0H14.7A14.7,14.7,0,0,0,0,14.7V234.8a14.6,14.6,0,0,0,14.7,14.6H124a14.6,14.6,0,0,0,14.7-14.6V14.7A14.7,14.7,0,0,0,124,0Zm5.8,214.8H8.9a3.4,3.4,0,0,1-3.3-3.4V28.6a3.4,3.4,0,0,1,3.3-3.4H129.8a3.4,3.4,0,0,1,3.3,3.4V211.4A3.4,3.4,0,0,1,129.8,214.8ZM79,230.7a9.7,9.7,0,1,1-9.6-9.6A9.6,9.6,0,0,1,79,230.7Z"/>
    </g>
  </g>
</svg>
