<svg xmlns="http://www.w3.org/2000/svg" viewBox="0 0 211 213.5">
  <title>user</title>
  <g id="Layer_2" data-name="Layer 2">
    <g id="Layer_1-2" data-name="Layer 1">
      <path d="M148.2,100.1a58.4,58.4,0,0,0,14.2-38.2c0-.5-.1-1-.1-1.6s.1-1.1.1-1.6A58.7,58.7,0,0,0,103.8,0h-2.9A58.7,58.7,0,0,0,42.3,58.7c0,.5.1,1,.1,1.6s-.2,1.1-.2,1.6a58.9,58.9,0,0,0,16.1,40.3A102.6,102.6,0,0,0,0,194.6a18.9,18.9,0,1,0,37.8,0,64.8,64.8,0,0,1,64.7-64.7,15.3,15.3,0,0,0,3-.3,15.3,15.3,0,0,0,3,.3,64.8,64.8,0,0,1,64.7,64.7,18.9,18.9,0,0,0,37.8,0A102.7,102.7,0,0,0,148.2,100.1ZM100.9,37.8l1.4-.2,1.5.2a20.8,20.8,0,0,1,20.8,20.9,10,10,0,0,0,.2,1.6,8.8,8.8,0,0,0-.2,1.6,20.9,20.9,0,0,1-20.8,20.9h-2.9A21,21,0,0,1,80,61.9c0-.5-.1-1.1-.1-1.6s.1-1.1.1-1.6A20.9,20.9,0,0,1,100.9,37.8Z"/>
    </g>
  </g>
</svg>
