<svg xmlns="http://www.w3.org/2000/svg" viewBox="0 0 249.4 167.2">
  <title>wd</title>
  <g id="Layer_2" data-name="Layer 2">
    <g id="Layer_1-2" data-name="Layer 1">
      <g>
        <path d="M249.4,151.6H234.6V10.1A10.1,10.1,0,0,0,224.5,0H25A10.2,10.2,0,0,0,14.8,10.1V151.6H0v5.8H0l12.5,9.8H237l12.4-9.8h0v-5.8Zm-22.6,0H147.2a7.2,7.2,0,0,1-7.2,5.8H109.4a7.2,7.2,0,0,1-7.2-5.8H22.6V10.1A2.4,2.4,0,0,1,25,7.8H224.5a2.4,2.4,0,0,1,2.3,2.3V151.6Z"/>
        <polygon points="68.1 78.9 68.1 83.8 106.2 103.5 106.2 96.9 75.3 81.4 105.9 66 106.2 65.9 106.2 59.3 68.3 78.8 68.1 78.9"/>
        <polygon points="111.9 106.4 118.3 106.4 140.8 48 141.1 47.3 134.6 47.3 111.9 106.4"/>
        <polygon points="143.2 59.3 143.2 65.9 174.3 81.4 143.5 96.7 143.2 96.9 143.2 103.5 181.4 83.9 181.4 78.8 143.9 59.7 143.2 59.3"/>
      </g>
    </g>
  </g>
</svg>
